<svg fill="#000000" viewBox="-1.6 -1.6 19.20 19.20" xmlns="http://www.w3.org/2000/svg">
    <g id="SVGRepo_bgCarrier" stroke-width="0" transform="translate(3.2,3.2), scale(0.6)">
        <rect x="-1.6" y="-1.6" width="19.20" height="19.20" rx="0" fill="#ffffff" strokewidth="0">
        </rect>
    </g>
    <g id="SVGRepo_tracerCarrier" stroke-linecap="round" stroke-linejoin="round" stroke="#CCCCCC"
        stroke-width="0.032">
    </g>
    <g id="SVGRepo_iconCarrier">
        <g>
            <path
                d="M5,4A1,1,0,1,0,6,5,1,1,0,0,0,5,4Zm6,6a1,1,0,1,0,1,1A1,1,0,0,0,11,10ZM8,7A1,1,0,1,0,9,8,1,1,0,0,0,8,7Zm4.36-6H3.64A2.64,2.64,0,0,0,1,3.64v8.72A2.64,2.64,0,0,0,3.64,15h8.72A2.64,2.64,0,0,0,15,12.36V3.64A2.64,2.64,0,0,0,12.36,1ZM13.6,12.36a1.25,1.25,0,0,1-1.24,1.24H3.64A1.25,1.25,0,0,1,2.4,12.36V3.64A1.25,1.25,0,0,1,3.64,2.4h8.72A1.25,1.25,0,0,1,13.6,3.64Z">
            </path>
        </g>
    </g>
</svg>